<svg xmlns="http://www.w3.org/2000/svg" width="1200" height="675" viewBox="0 0 1200 675"><defs><linearGradient id="bg" x1="0" x2="1"><stop stop-color="#f8fbff"/><stop offset="1" stop-color="#e9f4ff"/></linearGradient></defs><rect width="1200" height="675" fill="url(#bg)"/><text x="55" y="60" fill="#17344f" font-family="Arial,'Noto Sans KR',sans-serif" font-size="24" font-weight="700">MONEY BRIEF</text><text x="600" y="115" text-anchor="middle" fill="#102b45" font-family="Arial,'Noto Sans KR',sans-serif" font-size="55" font-weight="900">통합 후 꼭 기억할 3가지</text><g transform="translate(70 185)"><circle cx="165" cy="145" r="130" fill="#ddecfb"/><rect x="95" y="62" width="140" height="120" rx="18" fill="#fff" stroke="#3f78b0" stroke-width="5"/><rect x="95" y="62" width="140" height="32" rx="18" fill="#2c6fb0"/><text x="165" y="147" text-anchor="middle" fill="#123c66" font-size="58" font-weight="900" font-family="Arial,'Noto Sans KR',sans-serif">10년</text><text x="165" y="310" text-anchor="middle" fill="#1a3853" font-size="31" font-weight="800" font-family="Arial,'Noto Sans KR',sans-serif">아시아나 마일리지</text><text x="165" y="350" text-anchor="middle" fill="#1669b3" font-size="38" font-weight="900" font-family="Arial,'Noto Sans KR',sans-serif">10년 유지</text><text x="165" y="390" text-anchor="middle" fill="#607589" font-size="22" font-family="Arial,'Noto Sans KR',sans-serif">합병일부터 기존 기준으로 사용</text></g><g transform="translate(425 185)"><circle cx="165" cy="145" r="130" fill="#ddecfb"/><path d="M80 150l150-58 24 13-100 75 99 45-14 17-122-26-41 67-16-7 14-73-73-21 8-18 88 7z" fill="#2c6fb0"/><text x="165" y="310" text-anchor="middle" fill="#1a3853" font-size="31" font-weight="800" font-family="Arial,'Noto Sans KR',sans-serif">탑승 마일리지</text><text x="165" y="350" text-anchor="middle" fill="#1669b3" font-size="45" font-weight="900" font-family="Arial,'Noto Sans KR',sans-serif">1:1 전환</text><text x="165" y="390" text-anchor="middle" fill="#607589" font-size="22" font-family="Arial,'Noto Sans KR',sans-serif">동일한 수량으로 전환</text></g><g transform="translate(780 185)"><circle cx="165" cy="145" r="130" fill="#fff1cf"/><circle cx="130" cy="138" r="55" fill="#e6a82c"/><circle cx="195" cy="123" r="55" fill="#f0bf49"/><text x="130" y="151" text-anchor="middle" fill="#fff" font-size="32" font-weight="900" font-family="Arial">M</text><text x="195" y="136" text-anchor="middle" fill="#fff" font-size="32" font-weight="900" font-family="Arial">M</text><text x="165" y="310" text-anchor="middle" fill="#1a3853" font-size="31" font-weight="800" font-family="Arial,'Noto Sans KR',sans-serif">제휴 마일리지</text><text x="165" y="350" text-anchor="middle" fill="#b66c17" font-size="45" font-weight="900" font-family="Arial,'Noto Sans KR',sans-serif">1:0.82 전환</text><text x="165" y="390" text-anchor="middle" fill="#74613d" font-size="22" font-family="Arial,'Noto Sans KR',sans-serif">카드·호텔 등 제휴 적립분</text></g><line x1="400" y1="210" x2="400" y2="590" stroke="#c9d8e6" stroke-width="2"/><line x1="755" y1="210" x2="755" y2="590" stroke="#c9d8e6" stroke-width="2"/></svg>