<svg xmlns="http://www.w3.org/2000/svg" width="1200" height="675" viewBox="0 0 1200 675"><rect width="1200" height="675" fill="#f8fafc"/><text x="70" y="95" font-family="Arial, sans-serif" font-size="42" font-weight="700" fill="#172033">후속 연락이 누락되는 이유</text><rect x="70" y="145" width="470" height="430" rx="24" fill="white" stroke="#d0d5dd"/><text x="110" y="205" font-family="Arial, sans-serif" font-size="28" font-weight="700" fill="#344054">메모만 남긴 경우</text><rect x="110" y="245" width="390" height="64" rx="12" fill="#f2f4f7"/><text x="135" y="285" font-family="Arial, sans-serif" font-size="22" fill="#667085">“다음 주에 다시 연락”</text><rect x="110" y="335" width="390" height="64" rx="12" fill="#f2f4f7"/><text x="135" y="375" font-family="Arial, sans-serif" font-size="22" fill="#667085">담당자의 기억에 의존</text><rect x="110" y="425" width="390" height="64" rx="12" fill="#fff1f3"/><text x="135" y="465" font-family="Arial, sans-serif" font-size="22" fill="#b42318">업무량 증가 → 누락 위험</text><rect x="660" y="145" width="470" height="430" rx="24" fill="white" stroke="#d0d5dd"/><text x="700" y="205" font-family="Arial, sans-serif" font-size="28" font-weight="700" fill="#344054">재연락일을 남긴 경우</text><rect x="700" y="245" width="390" height="64" rx="12" fill="#eef4ff"/><text x="725" y="285" font-family="Arial, sans-serif" font-size="22" fill="#3538cd">재연락일 2026-08-28</text><rect x="700" y="335" width="390" height="64" rx="12" fill="#ecfdf3"/><text x="725" y="375" font-family="Arial, sans-serif" font-size="22" fill="#027a48">오늘 연락 목록에 자동 표시</text><rect x="700" y="425" width="390" height="64" rx="12" fill="#f9f5ff"/><text x="725" y="465" font-family="Arial, sans-serif" font-size="22" fill="#6941c6">처리 후 다음 일정 갱신</text></svg>