<svg xmlns="http://www.w3.org/2000/svg" width="1440" height="900" viewBox="0 0 1440 900"><rect width="1440" height="900" fill="#f6f8fb"/><rect x="40" y="40" width="1360" height="820" rx="14" fill="#fff" stroke="#d9e0e8"/><rect x="40" y="40" width="1360" height="56" rx="14" fill="#fff"/><circle cx="72" cy="68" r="7" fill="#d7dde5"/><circle cx="96" cy="68" r="7" fill="#d7dde5"/><circle cx="120" cy="68" r="7" fill="#d7dde5"/><text x="162" y="77" font-family="NanumSquare, sans-serif" font-size="18" font-weight="700" fill="#283341">CRM Desk · 고객 상세</text><rect x="40" y="96" width="210" height="764" fill="#f7f9fc"/><text x="72" y="145" font-family="NanumSquare, sans-serif" font-size="14" font-weight="700" fill="#596574">고객관리</text><rect x="58" y="168" width="174" height="42" rx="8" fill="#e9f2ff"/><text x="78" y="195" font-family="NanumSquare, sans-serif" font-size="15" font-weight="700" fill="#1f5f9e">고객 목록</text><text x="78" y="245" font-family="NanumSquare, sans-serif" font-size="15" fill="#697586">오늘 연락</text><text x="78" y="285" font-family="NanumSquare, sans-serif" font-size="15" fill="#697586">응답 지연</text><text x="78" y="325" font-family="NanumSquare, sans-serif" font-size="15" fill="#697586">상담 이력</text><text x="290" y="145" font-family="NanumSquare, sans-serif" font-size="26" font-weight="700" fill="#202a36">김OO · INQ-2026-0912</text><text x="290" y="177" font-family="NanumSquare, sans-serif" font-size="14" fill="#7b8794">고객ID C-1842 · 익명 예시</text><rect x="290" y="205" width="560" height="535" rx="12" fill="#fff" stroke="#dbe2ea"/><text x="320" y="246" font-family="NanumSquare, sans-serif" font-size="17" font-weight="700" fill="#263241">상담관리</text><text x="320" y="292" font-family="NanumSquare, sans-serif" font-size="13" fill="#74808d">상담상태</text><rect x="320" y="306" width="230" height="46" rx="7" fill="#fbfcfe" stroke="#cfd8e3"/><text x="338" y="335" font-family="NanumSquare, sans-serif" font-size="15" fill="#233142">방문상담</text><text x="590" y="292" font-family="NanumSquare, sans-serif" font-size="13" fill="#74808d">담당자</text><rect x="590" y="306" width="230" height="46" rx="7" fill="#fbfcfe" stroke="#cfd8e3"/><text x="608" y="335" font-family="NanumSquare, sans-serif" font-size="15" fill="#233142">박대리</text><text x="320" y="392" font-family="NanumSquare, sans-serif" font-size="13" fill="#74808d">재연락일</text><rect x="320" y="406" width="230" height="46" rx="7" fill="#fbfcfe" stroke="#cfd8e3"/><text x="338" y="435" font-family="NanumSquare, sans-serif" font-size="15" fill="#233142">2026-09-10</text><text x="590" y="392" font-family="NanumSquare, sans-serif" font-size="13" fill="#74808d">미팅일자</text><rect x="590" y="406" width="230" height="46" rx="7" fill="#fbfcfe" stroke="#cfd8e3"/><text x="608" y="435" font-family="NanumSquare, sans-serif" font-size="15" fill="#233142">2026-09-12</text><text x="320" y="492" font-family="NanumSquare, sans-serif" font-size="13" fill="#74808d">상담메모</text><rect x="320" y="506" width="500" height="116" rx="7" fill="#fbfcfe" stroke="#cfd8e3"/><text x="338" y="539" font-family="NanumSquare, sans-serif" font-size="15" fill="#233142">현장 방문 일정 확정</text><text x="338" y="568" font-family="NanumSquare, sans-serif" font-size="15" fill="#596574">방문 전 도면 다시 확인하기</text><rect x="670" y="660" width="150" height="48" rx="8" fill="#2563eb"/><text x="745" y="690" text-anchor="middle" font-family="NanumSquare, sans-serif" font-size="16" font-weight="700" fill="#fff">저장</text><rect x="885" y="205" width="480" height="535" rx="12" fill="#fff" stroke="#dbe2ea"/><text x="915" y="246" font-family="NanumSquare, sans-serif" font-size="17" font-weight="700" fill="#263241">최근 활동</text><rect x="915" y="272" width="420" height="156" rx="10" fill="#f7fbff" stroke="#cfe3f7"/><circle cx="941" cy="304" r="7" fill="#2563eb"/><text x="961" y="310" font-family="NanumSquare, sans-serif" font-size="14" font-weight="700" fill="#233142">2026-09-08 10:12 · 상담관리 변경</text><text x="961" y="344" font-family="NanumSquare, sans-serif" font-size="14" fill="#425466">상담상태  유선상담 → 방문상담</text><text x="961" y="374" font-family="NanumSquare, sans-serif" font-size="14" fill="#425466">담당자  김대리 → 박대리</text><text x="961" y="404" font-family="NanumSquare, sans-serif" font-size="14" fill="#425466">재연락일  09/08 → 09/10</text><line x1="941" y1="430" x2="941" y2="520" stroke="#d5dde6" stroke-width="2"/><circle cx="941" cy="466" r="6" fill="#94a3b8"/><text x="961" y="472" font-family="NanumSquare, sans-serif" font-size="14" font-weight="700" fill="#233142">2026-09-05 15:30 · 전화상담</text><text x="961" y="502" font-family="NanumSquare, sans-serif" font-size="14" fill="#596574">다음 연락일 2026-09-08</text><rect x="915" y="562" width="420" height="92" rx="10" fill="#f4f7fa"/><text x="938" y="596" font-family="NanumSquare, sans-serif" font-size="13" fill="#687483">저장 1회 → 변경값 비교 → 활동이력 1건 자동기록</text><text x="938" y="627" font-family="NanumSquare, sans-serif" font-size="13" fill="#687483">무변경 저장은 이력을 만들지 않습니다.</text><rect x="290" y="772" width="1075" height="58" rx="10" fill="#eef5ff"/><text x="320" y="807" font-family="NanumSquare, sans-serif" font-size="15" font-weight="700" fill="#265a91">실제 운영 흐름을 익명 데이터로 재구성한 화면 예시</text></svg>